<?xml version="1.0" encoding="utf-8"?>
<svg xmlns="http://www.w3.org/2000/svg">
<symbol id="chat" viewBox="0 0 554.475 554.475"><path d="M504.902 533.053c3.264 6.117 2.244 11.832-3.061 17.136-2.447 2.448-5.715 3.672-9.791 3.672-2.449 0-4.896-.612-7.348-1.836l-125.459-73.44c-26.928 7.347-54.264 11.019-82.008 11.019-38.352 0-74.358-6.427-108.018-19.278S106.181 440.032 81.089 418c-25.092-22.031-44.88-47.938-59.364-77.724C7.242 310.491 0 278.667 0 244.803c0-33.456 7.242-65.076 21.726-94.86C36.21 120.159 55.998 94.251 81.09 72.219s54.468-39.474 88.128-52.326C202.878 7.041 238.885.614 277.237.614c38.351 0 74.359 6.426 108.017 19.278 33.66 12.852 63.037 30.294 88.131 52.326 25.092 22.032 44.881 47.94 59.361 77.724 14.484 29.784 21.729 61.404 21.729 94.86 0 37.128-8.979 72.318-26.93 105.57-17.949 33.252-43.248 61.506-75.889 84.764l53.246 97.917z" />
</symbol>
<symbol id="clear"><path d="M357 35.7L321.3 0 178.5 142.8 35.7 0 0 35.7l142.8 142.8L0 321.3 35.7 357l142.8-142.8L321.3 357l35.7-35.7-142.8-142.8z"/>
</symbol>
<symbol id="create"><path d="M9.88 7V1c0-.545-.446-1-.998-1h-.685A.997.997 0 0 0 7.2 1v6H1.938a.993.993 0 0 0-.998.999v1.002c0 .556.447.999.998.999h5.26v6c0 .545.448 1 1 1h.684a.997.997 0 0 0 .999-1v-6h5.26a.993.993 0 0 0 .998-.999V7.999A.995.995 0 0 0 15.142 7H9.88z" fill-rule="evenodd"/>
</symbol>
<symbol id="sprite">
</symbol></svg>